<svg width="20" height="20" viewBox="0 0 20 20" fill="none" xmlns="http://www.w3.org/2000/svg">
<g clip-path="url(#clip0_1759_1332)">
<path d="M17.5 12.5H2.5C1.125 12.5 0 11.375 0 10C0 8.625 1.125 7.5 2.5 7.5H17.5C18.875 7.5 20 8.625 20 10C20 11.375 18.875 12.5 17.5 12.5ZM12.5 5H2.5C1.125 5 0 3.875 0 2.5C0 1.125 1.125 0 2.5 0H12.5C13.875 0 15 1.125 15 2.5C15 3.875 13.875 5 12.5 5ZM7.5 20H2.5C1.125 20 0 18.875 0 17.5C0 16.125 1.125 15 2.5 15H7.5C8.875 15 10 16.125 10 17.5C10 18.875 8.875 20 7.5 20Z" fill="#454545"/>
</g>
<defs>
<clipPath id="clip0_1759_1332">
<rect width="20" height="20" fill="white"/>
</clipPath>
</defs>
</svg>
