<svg width="20" height="20" viewBox="0 0 20 20" fill="none" xmlns="http://www.w3.org/2000/svg">
<g clip-path="url(#clip0_1759_1141)">
<path d="M2.5 19.3496H8.5166V11.4834H0.650391V17.5C0.650391 17.9907 0.844464 18.4617 1.19141 18.8086C1.53835 19.1555 2.00935 19.3496 2.5 19.3496Z" stroke="#454545" stroke-width="1.3"/>
<path d="M17.5002 19.3496C17.9906 19.3495 18.461 19.1553 18.8079 18.8086C19.1548 18.4617 19.3499 17.9907 19.3499 17.5V11.4834H11.4836V19.3496H17.5002Z" stroke="#454545" stroke-width="1.3"/>
<path d="M8.5166 8.51627V0.650063H2.5C2.00935 0.650063 1.53835 0.845112 1.19141 1.19205C0.844744 1.53889 0.650477 2.00929 0.650391 2.49967V8.51627H8.5166Z" stroke="#454545" stroke-width="1.3"/>
<path d="M19.3499 8.51627V2.49967C19.3498 2.00914 19.1547 1.53892 18.8079 1.19205C18.461 0.845189 17.9908 0.650149 17.5002 0.650063H11.4836V8.51627H19.3499Z" stroke="#454545" stroke-width="1.3"/>
</g>
<defs>
<clipPath id="clip0_1759_1141">
<rect width="20" height="20" fill="white" transform="matrix(1 0 0 -1 0 20)"/>
</clipPath>
</defs>
</svg>
