<svg width="24" height="24" viewBox="0 0 24 24" fill="none" xmlns="http://www.w3.org/2000/svg">
<mask id="mask0_1264_2953" style="mask-type:alpha" maskUnits="userSpaceOnUse" x="0" y="0" width="24" height="24">
<path d="M24 0H0L2.86197e-07 24H24L24 0Z" fill="#222222"/>
</mask>
<g mask="url(#mask0_1264_2953)">
<path fill-rule="evenodd" clip-rule="evenodd" d="M6.17574 4.37575C6.41005 4.14143 6.78995 4.14143 7.02426 4.37575L14.2243 11.5757C14.4586 11.8101 14.4586 12.19 14.2243 12.4243L7.02426 19.6243C6.78995 19.8586 6.41005 19.8586 6.17574 19.6243C5.94142 19.39 5.94142 19.0101 6.17574 18.7757L12.9515 12L6.17574 5.22428C5.94142 4.98996 5.94142 4.61006 6.17574 4.37575Z" fill="#333333"/>
<path fill-rule="evenodd" clip-rule="evenodd" d="M10.9746 4.37575C11.2089 4.14143 11.5888 4.14143 11.8231 4.37575L19.0231 11.5757C19.2574 11.8101 19.2574 12.19 19.0231 12.4243L11.8231 19.6243C11.5888 19.8586 11.2089 19.8586 10.9746 19.6243C10.7402 19.39 10.7402 19.0101 10.9746 18.7757L17.7503 12L10.9746 5.22428C10.7402 4.98996 10.7402 4.61006 10.9746 4.37575Z" fill="#333333"/>
</g>
</svg>
