<svg width="20" height="20" viewBox="0 0 20 20" fill="none" xmlns="http://www.w3.org/2000/svg">
<g clip-path="url(#clip0_1759_1369)">
<path d="M10 20C9.5375 20 9.07583 19.9358 8.62667 19.8075L3.02167 18.2067C1.2425 17.6983 0 16.0508 0 14.2V3.33333C0 2.87333 0.373333 2.5 0.833333 2.5C1.29333 2.5 1.66667 2.87333 1.66667 3.33333V14.2C1.66667 15.3108 2.4125 16.2992 3.48 16.6042L9.085 18.205C9.68417 18.3758 10.3167 18.3758 10.9167 18.205L16.5208 16.6042C17.5883 16.2992 18.3342 15.3108 18.3342 14.2V2.5C18.3342 2.04 18.7075 1.66666 19.1675 1.66666C19.6275 1.66666 20.0008 2.04 20.0008 2.5V14.2C20.0008 16.05 18.7583 17.6975 16.9792 18.2067L11.3742 19.8075C10.9242 19.9358 10.4625 20 10.0008 20H10ZM15.0192 0.129163C14.4125 -0.095004 13.7367 -0.0391706 13.1358 0.200829L12.405 0.492496C11.4558 0.871663 10.8325 1.79166 10.8325 2.81416V14.8942C10.5592 14.9642 10.28 15 9.99917 15C9.71833 15 9.43917 14.9642 9.16583 14.8942V2.81416C9.16583 1.79166 8.54333 0.871663 7.59333 0.492496L6.86167 0.199996C6.26083 -0.040004 5.585 -0.0958373 4.97833 0.129163C3.96583 0.504163 3.33167 1.44833 3.33167 2.48083V13.0758C3.33167 14.1917 4.07167 15.1725 5.14417 15.4792L8.62417 16.4742C9.0725 16.6017 9.535 16.6658 9.9975 16.6658C10.46 16.6658 10.9225 16.6017 11.3708 16.4742L14.8508 15.4792C15.9242 15.1725 16.6633 14.1917 16.6633 13.0758V2.48083C16.6633 1.44833 16.0283 0.503329 15.0158 0.129163H15.0192Z" fill="#454545"/>
</g>
<defs>
<clipPath id="clip0_1759_1369">
<rect width="20" height="20" fill="white"/>
</clipPath>
</defs>
</svg>
