<svg width="20" height="20" viewBox="0 0 20 20" fill="none" xmlns="http://www.w3.org/2000/svg">
<path d="M6.66675 6.66667V5H13.3334V6.66667H6.66675ZM4.16675 18.3333C3.94573 18.3333 3.73377 18.2455 3.57749 18.0893C3.42121 17.933 3.33341 17.721 3.33341 17.5V2.5C3.33341 2.27899 3.42121 2.06702 3.57749 1.91074C3.73377 1.75446 3.94573 1.66667 4.16675 1.66667H16.6667V9.58333C17.2856 9.84376 17.8507 10.2167 18.3334 10.6833V0H4.16675C3.50371 0 2.86782 0.263392 2.39898 0.732233C1.93014 1.20107 1.66675 1.83696 1.66675 2.5V17.5C1.66675 18.163 1.93014 18.7989 2.39898 19.2678C2.86782 19.7366 3.50371 20 4.16675 20H14.5834C13.8546 19.9999 13.1334 19.8522 12.4632 19.5657C11.7931 19.2793 11.1879 18.8601 10.6842 18.3333H4.16675ZM18.7859 19.9642L16.5717 17.75C15.9777 18.1291 15.2881 18.3315 14.5834 18.3333C13.8417 18.3333 13.1167 18.1134 12.5 17.7013C11.8833 17.2893 11.4027 16.7036 11.1189 16.0184C10.835 15.3332 10.7608 14.5792 10.9055 13.8517C11.0502 13.1243 11.4073 12.4561 11.9318 11.9317C12.4562 11.4072 13.1244 11.0501 13.8518 10.9054C14.5793 10.7607 15.3333 10.835 16.0185 11.1188C16.7037 11.4026 17.2894 11.8833 17.7014 12.4999C18.1135 13.1166 18.3334 13.8417 18.3334 14.5833C18.3315 15.288 18.1292 15.9776 17.7501 16.5717L19.9642 18.7858L18.7859 19.9642ZM14.5834 16.6667C14.9955 16.6667 15.3982 16.5445 15.7409 16.3156C16.0835 16.0866 16.3505 15.7613 16.5082 15.3806C16.6658 14.9999 16.7071 14.581 16.6267 14.1769C16.5463 13.7728 16.3479 13.4016 16.0566 13.1102C15.7652 12.8188 15.394 12.6204 14.9899 12.54C14.5857 12.4596 14.1668 12.5009 13.7862 12.6586C13.4055 12.8163 13.0801 13.0833 12.8512 13.4259C12.6223 13.7685 12.5001 14.1713 12.5001 14.5833C12.5001 15.1359 12.7196 15.6658 13.1103 16.0565C13.501 16.4472 14.0309 16.6667 14.5834 16.6667Z" fill="#454545"/>
</svg>
