<svg width="30" height="30" viewBox="0 0 30 30" fill="none" xmlns="http://www.w3.org/2000/svg">
<g clip-path="url(#clip0_1163_907)">
<path d="M8.75 27.5H6.25C5.25544 27.5 4.30161 27.1049 3.59835 26.4017C2.89509 25.6984 2.5 24.7446 2.5 23.75V6.25C2.5 5.25544 2.89509 4.30161 3.59835 3.59835C4.30161 2.89509 5.25544 2.5 6.25 2.5H8.75C9.08152 2.5 9.39946 2.3683 9.63388 2.13388C9.8683 1.89946 10 1.58152 10 1.25C10 0.918479 9.8683 0.600537 9.63388 0.366117C9.39946 0.131696 9.08152 0 8.75 0L6.25 0C4.59301 0.00198482 3.00445 0.661102 1.83277 1.83277C0.661102 3.00445 0.00198482 4.59301 0 6.25L0 23.75C0.00198482 25.407 0.661102 26.9956 1.83277 28.1672C3.00445 29.3389 4.59301 29.998 6.25 30H8.75C9.08152 30 9.39946 29.8683 9.63388 29.6339C9.8683 29.3995 10 29.0815 10 28.75C10 28.4185 9.8683 28.1005 9.63388 27.8661C9.39946 27.6317 9.08152 27.5 8.75 27.5Z" fill="#1692FF"/>
<path d="M28.7498 13.75L9.02858 13.79C9.13822 13.5864 9.27533 13.3988 9.43608 13.2325L14.2848 8.38375C14.4042 8.26844 14.4994 8.13051 14.565 7.97801C14.6305 7.8255 14.665 7.66148 14.6664 7.4955C14.6678 7.32953 14.6362 7.16493 14.5734 7.01131C14.5105 6.85769 14.4177 6.71812 14.3003 6.60076C14.183 6.48339 14.0434 6.39058 13.8898 6.32772C13.7362 6.26487 13.5716 6.23325 13.4056 6.23469C13.2396 6.23613 13.0756 6.27061 12.9231 6.33613C12.7706 6.40164 12.6326 6.49686 12.5173 6.61625L7.66608 11.465C6.72873 12.4026 6.20215 13.6742 6.20215 15C6.20215 16.3258 6.72873 17.5974 7.66608 18.535L12.5148 23.3838C12.6301 23.5031 12.7681 23.5984 12.9206 23.6639C13.0731 23.7294 13.2371 23.7639 13.4031 23.7653C13.5691 23.7668 13.7337 23.7351 13.8873 23.6723C14.0409 23.6094 14.1805 23.5166 14.2978 23.3992C14.4152 23.2819 14.508 23.1423 14.5709 22.9887C14.6337 22.8351 14.6653 22.6705 14.6639 22.5045C14.6625 22.3385 14.628 22.1745 14.5625 22.022C14.4969 21.8695 14.4017 21.7316 14.2823 21.6163L9.43358 16.7675C9.29369 16.6234 9.17156 16.4631 9.06983 16.29L28.7498 16.25C29.0814 16.25 29.3993 16.1183 29.6337 15.8839C29.8681 15.6495 29.9998 15.3315 29.9998 15C29.9998 14.6685 29.8681 14.3505 29.6337 14.1161C29.3993 13.8817 29.0814 13.75 28.7498 13.75Z" fill="#1692FF"/>
</g>
<defs>
<clipPath id="clip0_1163_907">
<rect width="30" height="30" fill="white"/>
</clipPath>
</defs>
</svg>
