<svg width="20" height="20" viewBox="0 0 20 20" fill="none" xmlns="http://www.w3.org/2000/svg">
<g clip-path="url(#clip0_1163_891)">
<path d="M17.5 7.5H2.5C1.125 7.5 0 8.625 0 10C0 11.375 1.125 12.5 2.5 12.5H17.5C18.875 12.5 20 11.375 20 10C20 8.625 18.875 7.5 17.5 7.5ZM17.5 10.8333H2.5C2.04167 10.8333 1.66667 10.4583 1.66667 10C1.66667 9.54167 2.04167 9.16667 2.5 9.16667H17.5C17.9583 9.16667 18.3333 9.54167 18.3333 10C18.3333 10.4583 17.9583 10.8333 17.5 10.8333ZM2.5 5H12.5C13.875 5 15 3.875 15 2.5C15 1.125 13.875 0 12.5 0H2.5C1.125 0 0 1.125 0 2.5C0 3.875 1.125 5 2.5 5ZM2.5 1.66667H12.5C12.9583 1.66667 13.3333 2.04167 13.3333 2.5C13.3333 2.95833 12.9583 3.33333 12.5 3.33333H2.5C2.04167 3.33333 1.66667 2.95833 1.66667 2.5C1.66667 2.04167 2.04167 1.66667 2.5 1.66667ZM7.5 15H2.5C1.125 15 0 16.125 0 17.5C0 18.875 1.125 20 2.5 20H7.5C8.875 20 10 18.875 10 17.5C10 16.125 8.875 15 7.5 15ZM7.5 18.3333H2.5C2.04167 18.3333 1.66667 17.9583 1.66667 17.5C1.66667 17.0417 2.04167 16.6667 2.5 16.6667H7.5C7.95833 16.6667 8.33333 17.0417 8.33333 17.5C8.33333 17.9583 7.95833 18.3333 7.5 18.3333Z" fill="#454545"/>
</g>
<defs>
<clipPath id="clip0_1163_891">
<rect width="20" height="20" fill="white"/>
</clipPath>
</defs>
</svg>
