<svg width="18" height="16" viewBox="0 0 18 16" fill="none" xmlns="http://www.w3.org/2000/svg">
<path fill-rule="evenodd" clip-rule="evenodd" d="M8.05624 2C4.60605 2 1.79961 4.81899 1.79961 8.3C1.79961 11.781 4.60605 14.6 8.05624 14.6C9.5274 14.6 10.8786 14.0898 11.9472 13.2335L12.6976 14.1699C11.4242 15.1904 9.81035 15.8 8.05624 15.8C3.93615 15.8 0.599609 12.4366 0.599609 8.3C0.599609 4.16342 3.93615 0.800003 8.05624 0.800003C12.1763 0.800003 15.5129 4.16342 15.5129 8.3C15.5129 8.56008 15.5001 8.82053 15.4744 9.07731L14.2804 8.9579C14.302 8.74154 14.3129 8.52096 14.3129 8.3C14.3129 4.81899 11.5064 2 8.05624 2Z" fill="#757575"/>
<path fill-rule="evenodd" clip-rule="evenodd" d="M14.9129 8.48165L13.2806 6.83998L12.4297 7.68608L14.9138 10.1844L17.3934 7.68567L16.5417 6.84039L14.9129 8.48165Z" fill="#757575"/>
</svg>
