<svg width="24" height="24" viewBox="0 0 24 24" fill="none" xmlns="http://www.w3.org/2000/svg">
<g clip-path="url(#clip0_1290_2238)">
<mask id="mask0_1290_2238" style="mask-type:luminance" maskUnits="userSpaceOnUse" x="0" y="0" width="24" height="24">
<path d="M24 0H0V24H24V0Z" fill="white"/>
</mask>
<g mask="url(#mask0_1290_2238)">
<path d="M20.8546 13.7255L13.4482 20.8331C12.3365 21.8805 10.8668 22.4639 9.33942 22.4639C7.81203 22.4639 6.3423 21.8805 5.23062 20.8331C4.69355 20.3269 4.26563 19.7163 3.97315 19.0387C3.68066 18.3612 3.52979 17.6309 3.52979 16.8929C3.52979 16.1549 3.68066 15.4247 3.97315 14.7471C4.26563 14.0695 4.69355 13.4589 5.23062 12.9527L5.23902 12.9383L14.9758 3.60112C15.7031 2.91542 16.6649 2.53351 17.6644 2.53351C18.664 2.53351 19.6258 2.91542 20.353 3.60112C20.7051 3.93234 20.9856 4.3321 21.1774 4.7758C21.3691 5.2195 21.468 5.69775 21.468 6.18112C21.468 6.66448 21.3691 7.14274 21.1774 7.58644C20.9856 8.03014 20.7051 8.4299 20.353 8.76112L10.6174 18.0971L10.5994 18.1115C10.2161 18.4725 9.70938 18.6735 9.18282 18.6735C8.65627 18.6735 8.14957 18.4725 7.76622 18.1115C7.58083 17.9372 7.43308 17.7267 7.3321 17.4931C7.23111 17.2594 7.17901 17.0076 7.17901 16.7531C7.17901 16.4986 7.23111 16.2468 7.3321 16.0132C7.43308 15.7796 7.58083 15.5691 7.76622 15.3947L16.4614 7.05352" stroke="#1755E5" stroke-width="1.5" stroke-linecap="round" stroke-linejoin="round"/>
</g>
</g>
<defs>
<clipPath id="clip0_1290_2238">
<rect width="24" height="24" fill="white"/>
</clipPath>
</defs>
</svg>
