<svg width="20" height="20" viewBox="0 0 20 20" fill="none" xmlns="http://www.w3.org/2000/svg">
<g clip-path="url(#clip0_1759_1355)">
<mask id="mask0_1759_1355" style="mask-type:luminance" maskUnits="userSpaceOnUse" x="0" y="0" width="20" height="20">
<path d="M20 0H0V20H20V0Z" fill="white"/>
</mask>
<g mask="url(#mask0_1759_1355)">
<path d="M14.8001 3.8L15.9001 4.1L16.2001 5.2C16.2001 5.4 16.4001 5.5 16.5001 5.7C16.6001 5.9 16.8001 5.9 17.0001 5.9C17.2001 5.9 17.4001 5.9 17.5001 5.7C17.7001 5.6 17.8001 5.4 17.8001 5.2L18.1001 4.1L19.2001 3.8C19.4001 3.8 19.5001 3.6 19.7001 3.5C19.8001 3.3 19.9001 3.2 19.9001 3C19.9001 2.8 19.9001 2.6 19.7001 2.5C19.6001 2.3 19.4001 2.2 19.2001 2.2L18.1001 1.9L17.8001 0.799998C17.8001 0.599998 17.6001 0.499999 17.5001 0.299998C17.3001 0.199998 17.2001 0.0999985 17.0001 0.0999985C16.8001 0.0999985 16.6001 0.0999985 16.5001 0.299998C16.4001 0.499999 16.2001 0.599998 16.2001 0.799998L15.9001 1.9L14.8001 2.2C14.6001 2.2 14.5001 2.4 14.3001 2.5C14.2001 2.7 14.1001 2.8 14.1001 3C14.1001 3.2 14.1001 3.4 14.3001 3.5C14.4001 3.7 14.6001 3.8 14.8001 3.8Z" fill="#454545"/>
<path d="M4.0999 4.3L5.3999 4.7L5.7999 6C5.7999 6.2 5.9999 6.4 6.1999 6.5C6.3999 6.6 6.5999 6.7 6.7999 6.7C6.9999 6.7 7.1999 6.7 7.3999 6.5C7.5999 6.4 7.6999 6.2 7.7999 6L8.1999 4.7L9.4999 4.3C9.6999 4.3 9.8999 4.1 9.9999 3.9C10.0999 3.7 10.1999 3.5 10.1999 3.3C10.1999 3.1 10.1999 2.9 9.9999 2.7C9.8999 2.5 9.6999 2.4 9.4999 2.3L8.1999 1.9L7.7999 0.600002C7.7999 0.400002 7.5999 0.200002 7.3999 0.100002C7.1999 1.52737e-06 6.9999 -0.0999985 6.7999 -0.0999985C6.5999 -0.0999985 6.3999 -0.0999985 6.1999 0.100002C5.9999 0.200002 5.8999 0.400002 5.7999 0.600002L5.3999 1.9L4.0999 2.3C3.8999 2.3 3.6999 2.5 3.5999 2.7C3.4999 2.9 3.3999 3.1 3.3999 3.3C3.3999 3.5 3.3999 3.7 3.5999 3.9C3.6999 4.1 3.8999 4.2 4.0999 4.3Z" fill="#454545"/>
<path d="M19.8002 12.7C19.7002 12.5 19.5002 12.4 19.3002 12.3L18.0002 11.9L17.6002 10.6C17.6002 10.4 17.4002 10.2 17.2002 10.1C17.0002 10 16.8002 9.9 16.6002 9.9C16.4002 9.9 16.2002 9.9 16.0002 10.1C15.8002 10.2 15.7002 10.4 15.6002 10.6L15.2002 11.9L13.9002 12.3C13.7002 12.3 13.5002 12.5 13.4002 12.7C13.3002 12.9 13.2002 13.1 13.2002 13.3C13.2002 13.5 13.2002 13.7 13.4002 13.9C13.5002 14.1 13.7002 14.2 13.9002 14.3L15.2002 14.7L15.6002 16C15.6002 16.2 15.8002 16.4 16.0002 16.5C16.2002 16.6 16.4002 16.7 16.6002 16.7C16.8002 16.7 17.0002 16.7 17.2002 16.5C17.4002 16.4 17.5002 16.2 17.6002 16L18.0002 14.7L19.3002 14.3C19.5002 14.3 19.7002 14.1 19.8002 13.9C19.9002 13.7 20.0002 13.5 20.0002 13.3C20.0002 13.1 20.0002 12.9 19.8002 12.7Z" fill="#454545"/>
<path d="M14.8001 8.5C14.9001 8.2 15.0001 7.9 15.0001 7.5C15.0001 7.2 15.0001 6.8 14.8001 6.5C14.7001 6.2 14.5001 5.9 14.2001 5.7C13.7001 5.2 13.1001 5 12.4001 5C11.7001 5 11.1001 5.3 10.6001 5.7L0.800098 15.6C0.300098 16.1 0.100098 16.7 0.100098 17.4C0.100098 18.1 0.400098 18.7 0.800098 19.2C1.3001 19.7 1.9001 19.9 2.6001 19.9C3.3001 19.9 3.9001 19.7 4.4001 19.2L14.3001 9.3C14.5001 9.1 14.7001 8.8 14.9001 8.5H14.8001Z" fill="#454545"/>
</g>
</g>
<defs>
<clipPath id="clip0_1759_1355">
<rect width="20" height="20" fill="white"/>
</clipPath>
</defs>
</svg>
