<svg width="20" height="20" viewBox="0 0 20 20" fill="none" xmlns="http://www.w3.org/2000/svg">
<g clip-path="url(#clip0_1163_887)">
<path d="M16.6667 14.795V2.50084C16.6667 1.70917 16.3042 0.981673 15.6717 0.505007C15.04 0.0283398 14.2425 -0.12166 13.48 0.0975065L10.98 0.811673C10.6083 0.917507 10.2758 1.10667 10 1.35417C9.72417 1.10667 9.39167 0.917507 9.02 0.811673L6.52 0.0975065C5.75667 -0.12166 4.95917 0.0283398 4.32833 0.505007C3.69583 0.981673 3.33333 1.70917 3.33333 2.50084V14.795L10 16.7L16.6667 14.795ZM10.8333 3.21501C10.8333 2.84501 11.0817 2.51584 11.4383 2.41417L13.9383 1.70001C14.015 1.67834 14.0925 1.66751 14.1692 1.66751C14.3475 1.66751 14.5217 1.72501 14.6683 1.83584C14.8792 1.99501 15 2.23751 15 2.50084V13.5383L10.8333 14.7292V3.21501ZM9.16667 14.7283L5 13.5375V2.50084C5 2.23751 5.12083 1.99501 5.33167 1.83584C5.54167 1.67751 5.80833 1.62751 6.06167 1.70001L8.56167 2.41417C8.9175 2.51584 9.16583 2.84501 9.16583 3.21501V14.7283H9.16667ZM20 2.50001V17.1758L10 20.0333L0 17.1758V3.33334C0 2.54167 0.3625 1.81417 0.995 1.33751C1.2025 1.18084 1.43083 1.07417 1.66667 0.989173V15.9192L10 18.3L18.3333 15.9192V0.15584C18.5692 0.24084 18.7983 0.347507 19.005 0.504173C19.6375 0.98084 20 1.70834 20 2.50001Z" fill="#454545"/>
</g>
<defs>
<clipPath id="clip0_1163_887">
<rect width="20" height="20" fill="white"/>
</clipPath>
</defs>
</svg>
