<svg width="20" height="20" viewBox="0 0 20 20" fill="none" xmlns="http://www.w3.org/2000/svg">
<g clip-path="url(#clip0_1163_868)">
<path d="M15 7.55331C15.0001 7.21811 14.9339 6.8862 14.8052 6.57671C14.6765 6.26721 14.4878 5.98624 14.25 5.74998C13.7634 5.28569 13.1167 5.02665 12.4442 5.02665C11.7716 5.02665 11.1249 5.28569 10.6383 5.74998L0.749987 15.6408C0.298669 16.1247 0.0528549 16.765 0.0643506 17.4266C0.0758463 18.0883 0.343754 18.7196 0.811611 19.1875C1.27947 19.6555 1.91073 19.9236 2.57235 19.9352C3.23398 19.9469 3.87428 19.7012 4.35832 19.25L14.25 9.35915C14.4881 9.12265 14.6771 8.84129 14.8058 8.53132C14.9345 8.22136 15.0005 7.88895 15 7.55331ZM3.17999 18.0733C3.01153 18.2339 2.78772 18.3235 2.55499 18.3235C2.32225 18.3235 2.09845 18.2339 1.92999 18.0733C1.7645 17.9074 1.67156 17.6826 1.67156 17.4483C1.67156 17.214 1.7645 16.9892 1.92999 16.8233L8.40415 10.3483L9.65832 11.6025L3.17999 18.0733ZM13.0733 8.17998L10.8333 10.4208L9.58332 9.16665L11.8242 6.92665C11.904 6.83539 12.0018 6.76151 12.1114 6.70959C12.221 6.65766 12.3401 6.62879 12.4613 6.62476C12.5825 6.62074 12.7033 6.64165 12.8161 6.6862C12.9289 6.73074 13.0313 6.79798 13.1171 6.88373C13.2028 6.96949 13.2701 7.07194 13.3146 7.18474C13.3592 7.29754 13.3801 7.41829 13.376 7.5395C13.372 7.66071 13.3431 7.7798 13.2912 7.8894C13.2393 7.999 13.1654 8.09677 13.0742 8.17665L13.0733 8.17998ZM4.05249 2.37915L5.34415 2.01081L5.71249 0.719146C5.77182 0.511883 5.89704 0.329577 6.06919 0.199796C6.24134 0.0700151 6.45106 -0.000183105 6.66665 -0.000183105C6.88224 -0.000183105 7.09197 0.0700151 7.26412 0.199796C7.43627 0.329577 7.56148 0.511883 7.62082 0.719146L7.98915 2.01081L9.28082 2.37915C9.48808 2.43848 9.67039 2.5637 9.80017 2.73585C9.92995 2.908 10.0001 3.11772 10.0001 3.33331C10.0001 3.5489 9.92995 3.75863 9.80017 3.93078C9.67039 4.10293 9.48808 4.22814 9.28082 4.28748L7.98915 4.65581L7.62082 5.94748C7.56148 6.15474 7.43627 6.33705 7.26412 6.46683C7.09197 6.59661 6.88224 6.66681 6.66665 6.66681C6.45106 6.66681 6.24134 6.59661 6.06919 6.46683C5.89704 6.33705 5.77182 6.15474 5.71249 5.94748L5.34415 4.65581L4.05249 4.28748C3.84522 4.22814 3.66292 4.10293 3.53314 3.93078C3.40336 3.75863 3.33316 3.5489 3.33316 3.33331C3.33316 3.11772 3.40336 2.908 3.53314 2.73585C3.66292 2.5637 3.84522 2.43848 4.05249 2.37915ZM19.2808 14.2875L17.9892 14.6558L17.6208 15.9475C17.5615 16.1547 17.4363 16.337 17.2641 16.4668C17.092 16.5966 16.8822 16.6668 16.6667 16.6668C16.4511 16.6668 16.2413 16.5966 16.0692 16.4668C15.897 16.337 15.7718 16.1547 15.7125 15.9475L15.3442 14.6558L14.0525 14.2875C13.8452 14.2281 13.6629 14.1029 13.5331 13.9308C13.4034 13.7586 13.3332 13.5489 13.3332 13.3333C13.3332 13.1177 13.4034 12.908 13.5331 12.7358C13.6629 12.5637 13.8452 12.4385 14.0525 12.3791L15.3442 12.0108L15.7125 10.7191C15.7718 10.5119 15.897 10.3296 16.0692 10.1998C16.2413 10.07 16.4511 9.99982 16.6667 9.99982C16.8822 9.99982 17.092 10.07 17.2641 10.1998C17.4363 10.3296 17.5615 10.5119 17.6208 10.7191L17.9892 12.0108L19.2808 12.3791C19.4881 12.4385 19.6704 12.5637 19.8002 12.7358C19.93 12.908 20.0001 13.1177 20.0001 13.3333C20.0001 13.5489 19.93 13.7586 19.8002 13.9308C19.6704 14.1029 19.4881 14.2281 19.2808 14.2875ZM14.7958 2.08331L15.9258 1.76081L16.25 0.629146C16.3027 0.448994 16.4125 0.290789 16.5627 0.17824C16.7129 0.0656911 16.8956 0.00485864 17.0833 0.00485864C17.271 0.00485864 17.4537 0.0656911 17.6039 0.17824C17.7542 0.290789 17.8639 0.448994 17.9167 0.629146L18.2392 1.75915L19.3692 2.08165C19.5493 2.1344 19.7075 2.24412 19.8201 2.39436C19.9326 2.5446 19.9934 2.72726 19.9934 2.91498C19.9934 3.1027 19.9326 3.28536 19.8201 3.4356C19.7075 3.58584 19.5493 3.69555 19.3692 3.74831L18.2392 4.07081L17.9167 5.20331C17.8639 5.38347 17.7542 5.54167 17.6039 5.65422C17.4537 5.76677 17.271 5.8276 17.0833 5.8276C16.8956 5.8276 16.7129 5.76677 16.5627 5.65422C16.4125 5.54167 16.3027 5.38347 16.25 5.20331L15.9275 4.07415L14.7958 3.74998C14.6157 3.69722 14.4575 3.5875 14.3449 3.43727C14.2324 3.28703 14.1715 3.10437 14.1715 2.91665C14.1715 2.72893 14.2324 2.54626 14.3449 2.39603C14.4575 2.24579 14.6157 2.13607 14.7958 2.08331Z" fill="#454545"/>
</g>
<defs>
<clipPath id="clip0_1163_868">
<rect width="20" height="20" fill="white"/>
</clipPath>
</defs>
</svg>
