<svg width="20" height="20" viewBox="0 0 20 20" fill="none" xmlns="http://www.w3.org/2000/svg">
<g clip-path="url(#clip0_1163_856)">
<path d="M15.5468 0.775009L5.38676 10.935C4.99872 11.321 4.69108 11.7801 4.48167 12.2857C4.27225 12.7914 4.16522 13.3335 4.16676 13.8808V15C4.16676 15.221 4.25456 15.433 4.41084 15.5893C4.56712 15.7455 4.77908 15.8333 5.0001 15.8333H6.11926C6.66657 15.8349 7.20874 15.7279 7.7144 15.5184C8.22005 15.309 8.67914 15.0014 9.0651 14.6133L19.2251 4.45334C19.7121 3.96515 19.9856 3.30374 19.9856 2.61418C19.9856 1.92461 19.7121 1.2632 19.2251 0.775009C18.7298 0.301587 18.0711 0.037384 17.3859 0.037384C16.7008 0.037384 16.042 0.301587 15.5468 0.775009ZM18.0468 3.27501L7.88676 13.435C7.41687 13.902 6.78177 14.1649 6.11926 14.1667H5.83343V13.8808C5.83517 13.2183 6.09807 12.5832 6.5651 12.1133L16.7251 1.95334C16.9031 1.78331 17.1398 1.68842 17.3859 1.68842C17.6321 1.68842 17.8688 1.78331 18.0468 1.95334C18.2217 2.12877 18.32 2.36642 18.32 2.61418C18.32 2.86193 18.2217 3.09958 18.0468 3.27501Z" fill="#454545"/>
<path d="M19.1667 7.4825C18.9457 7.4825 18.7337 7.5703 18.5774 7.72658C18.4211 7.88286 18.3333 8.09482 18.3333 8.31583V12.5H15C14.337 12.5 13.7011 12.7634 13.2322 13.2322C12.7634 13.7011 12.5 14.337 12.5 15V18.3333H4.16667C3.50363 18.3333 2.86774 18.0699 2.3989 17.6011C1.93006 17.1323 1.66667 16.4964 1.66667 15.8333V4.16667C1.66667 3.50363 1.93006 2.86774 2.3989 2.3989C2.86774 1.93006 3.50363 1.66667 4.16667 1.66667H11.7017C11.9227 1.66667 12.1346 1.57887 12.2909 1.42259C12.4472 1.26631 12.535 1.05435 12.535 0.833333C12.535 0.61232 12.4472 0.400358 12.2909 0.244078C12.1346 0.0877974 11.9227 0 11.7017 0L4.16667 0C3.062 0.00132321 2.00296 0.440735 1.22185 1.22185C0.440735 2.00297 0.00132321 3.062 0 4.16667L0 15.8333C0.00132321 16.938 0.440735 17.997 1.22185 18.7782C2.00296 19.5593 3.062 19.9987 4.16667 20H13.6192C14.1666 20.0016 14.7089 19.8945 15.2147 19.6851C15.7205 19.4757 16.1797 19.1681 16.5658 18.78L18.7792 16.565C19.1673 16.1791 19.475 15.72 19.6846 15.2143C19.8941 14.7087 20.0013 14.1665 20 13.6192V8.31583C20 8.09482 19.9122 7.88286 19.7559 7.72658C19.5996 7.5703 19.3877 7.4825 19.1667 7.4825ZM15.3875 17.6017C15.0525 17.9358 14.6289 18.1672 14.1667 18.2683V15C14.1667 14.779 14.2545 14.567 14.4107 14.4107C14.567 14.2545 14.779 14.1667 15 14.1667H18.2708C18.1677 14.6279 17.9367 15.0508 17.6042 15.3867L15.3875 17.6017Z" fill="#454545"/>
</g>
<defs>
<clipPath id="clip0_1163_856">
<rect width="20" height="20" fill="white"/>
</clipPath>
</defs>
</svg>
