<svg width="18" height="18" viewBox="0 0 18 18" fill="none" xmlns="http://www.w3.org/2000/svg">
<path fill-rule="evenodd" clip-rule="evenodd" d="M7.3575 1.80001C4.28796 1.80001 1.79961 4.28836 1.79961 7.3579C1.79961 10.4274 4.28796 12.9158 7.3575 12.9158C10.427 12.9158 12.9154 10.4274 12.9154 7.3579C12.9154 4.28836 10.427 1.80001 7.3575 1.80001ZM0.599609 7.3579C0.599609 3.62562 3.62522 0.600006 7.3575 0.600006C11.0898 0.600006 14.1154 3.62562 14.1154 7.3579C14.1154 11.0902 11.0898 14.1158 7.3575 14.1158C3.62522 14.1158 0.599609 11.0902 0.599609 7.3579Z" fill="#222222"/>
<path fill-rule="evenodd" clip-rule="evenodd" d="M16.3755 17.2243L11.4492 12.2979L12.2977 11.4494L17.2241 16.3757L16.3755 17.2243Z" fill="#222222"/>
</svg>
