<svg width="20" height="20" viewBox="0 0 20 20" fill="none" xmlns="http://www.w3.org/2000/svg">
<g clip-path="url(#clip0_1163_872)">
<path d="M0 17.5V10.8333H9.16667V20H2.5C1.83696 20 1.20107 19.7366 0.732233 19.2678C0.263392 18.7989 0 18.163 0 17.5Z" fill="#454545"/>
<path d="M17.4999 20H10.8333V10.8333H19.9999V17.5C19.9999 18.163 19.7365 18.7989 19.2677 19.2678C18.7988 19.7366 18.163 20 17.4999 20Z" fill="#454545"/>
<path d="M0 2.5C0 1.83696 0.263392 1.20108 0.732233 0.732238C1.20107 0.263396 1.83696 4.76837e-06 2.5 4.76837e-06H9.16667V9.16667H0V2.5Z" fill="#454545"/>
<path d="M10.8333 4.76837e-06H17.4999C18.163 4.76837e-06 18.7988 0.263396 19.2677 0.732238C19.7365 1.20108 19.9999 1.83696 19.9999 2.5V9.16667H10.8333V4.76837e-06Z" fill="#454545"/>
</g>
<defs>
<clipPath id="clip0_1163_872">
<rect width="20" height="20" fill="white" transform="matrix(1 0 0 -1 0 20)"/>
</clipPath>
</defs>
</svg>
