<svg width="84" height="81" viewBox="0 0 84 81" fill="none" xmlns="http://www.w3.org/2000/svg">
<path d="M42.1588 80.7334C65.024 80.7334 83.5598 62.8512 83.5598 40.7925C83.5598 18.7337 65.024 0.851562 42.1588 0.851562C19.2937 0.851562 0.757812 18.7337 0.757812 40.7925C0.757812 62.8512 19.2937 80.7334 42.1588 80.7334Z" fill="#EAEAEA"/>
<path d="M42.159 79.2356C64.1667 79.2356 82.0075 62.024 82.0075 40.7925C82.0075 19.5609 64.1667 2.34933 42.159 2.34933C20.1513 2.34933 2.31055 19.5609 2.31055 40.7925C2.31055 62.024 20.1513 79.2356 42.159 79.2356Z" stroke="#EAEAEA" stroke-width="3" stroke-miterlimit="10"/>
<path d="M41.6602 49.4876L41.6602 18.4086L41.6602 49.4876Z" fill="white"/>
<path d="M41.6602 49.4876L41.6602 18.4086" stroke="white" stroke-width="3" stroke-miterlimit="10" stroke-linecap="round"/>
<path d="M41.6602 55.962V59.8473V55.962Z" fill="white"/>
<path d="M41.6602 55.962V59.8473" stroke="white" stroke-width="3" stroke-miterlimit="10" stroke-linecap="round"/>
</svg>
