<svg width="20" height="20" viewBox="0 0 20 20" fill="none" xmlns="http://www.w3.org/2000/svg">
<g clip-path="url(#clip0_1759_1334)">
<path d="M10 5.83333V0.383333C10.7608 0.671667 11.4608 1.11583 12.0542 1.70833L14.9575 4.61333C15.5508 5.20583 15.995 5.90583 16.2833 6.66667H10.8333C10.3733 6.66667 10 6.2925 10 5.83333ZM11.0583 16.2333C10.3808 16.9108 10 17.8292 10 18.7875V20H11.2125C12.1708 20 13.0892 19.6192 13.7667 18.9417L19.4392 13.2692C20.1867 12.5217 20.1867 11.3083 19.4392 10.5608C18.6917 9.81333 17.4783 9.81333 16.7308 10.5608L11.0583 16.2333ZM8.33333 18.7875C8.33333 17.3775 8.8825 16.0517 9.87917 15.055L15.5517 9.3825C15.8758 9.05833 16.2533 8.80917 16.6608 8.63167C16.6575 8.53167 16.6533 8.4325 16.6467 8.3325H10.8333C9.455 8.3325 8.33333 7.21083 8.33333 5.8325V0.02C8.19917 0.0108333 8.065 0 7.92917 0H4.16667C1.86917 0 0 1.86917 0 4.16667V15.8333C0 18.1308 1.86917 20 4.16667 20H8.33333V18.7875Z" fill="#454545"/>
</g>
<defs>
<clipPath id="clip0_1759_1334">
<rect width="20" height="20" fill="white"/>
</clipPath>
</defs>
</svg>
