<svg width="20" height="20" viewBox="0 0 20 20" fill="none" xmlns="http://www.w3.org/2000/svg">
<path d="M9.1665 14.5833C9.16755 13.522 9.48035 12.4844 10.0661 11.5994C10.6518 10.7143 11.4846 10.0208 12.461 9.60502C13.4375 9.18922 14.5146 9.06944 15.5586 9.26055C16.6025 9.45167 17.5673 9.94525 18.3332 10.68V0H4.1665C3.50346 0 2.86758 0.263392 2.39874 0.732233C1.9299 1.20107 1.6665 1.83696 1.6665 2.5V17.5C1.6665 18.163 1.9299 18.7989 2.39874 19.2678C2.86758 19.7366 3.50346 20 4.1665 20H14.5832C13.1466 20 11.7688 19.4293 10.753 18.4135C9.73719 17.3977 9.1665 16.0199 9.1665 14.5833ZM5.83317 4.16667H14.1665V5.83333H5.83317V4.16667ZM18.7857 19.9642L16.5715 17.75C15.9775 18.1291 15.2879 18.3315 14.5832 18.3333C13.8415 18.3333 13.1165 18.1134 12.4998 17.7013C11.8831 17.2893 11.4025 16.7036 11.1186 16.0184C10.8348 15.3332 10.7605 14.5792 10.9052 13.8517C11.0499 13.1243 11.4071 12.4561 11.9315 11.9317C12.456 11.4072 13.1242 11.0501 13.8516 10.9054C14.579 10.7607 15.333 10.835 16.0182 11.1188C16.7035 11.4026 17.2891 11.8833 17.7012 12.4999C18.1132 13.1166 18.3332 13.8417 18.3332 14.5833C18.3313 15.288 18.129 15.9776 17.7498 16.5717L19.964 18.7858L18.7857 19.9642Z" fill="#454545"/>
</svg>
