<svg width="20" height="20" viewBox="0 0 20 20" fill="none" xmlns="http://www.w3.org/2000/svg">
<g clip-path="url(#clip0_1759_1347)">
<path d="M16.6667 0H3.33333C2.44928 0 1.60143 0.35119 0.976311 0.976311C0.35119 1.60143 0 2.44928 0 3.33333L0 13.3333C0 14.2174 0.35119 15.0652 0.976311 15.6904C1.60143 16.3155 2.44928 16.6667 3.33333 16.6667H5.75L9.45917 19.8025C9.60964 19.9298 9.80038 19.9997 9.9975 19.9997C10.1946 19.9997 10.3854 19.9298 10.5358 19.8025L14.25 16.6667H16.6667C17.5507 16.6667 18.3986 16.3155 19.0237 15.6904C19.6488 15.0652 20 14.2174 20 13.3333V3.33333C20 2.44928 19.6488 1.60143 19.0237 0.976311C18.3986 0.35119 17.5507 0 16.6667 0ZM5.83333 4.16667H10C10.221 4.16667 10.433 4.25446 10.5893 4.41074C10.7455 4.56702 10.8333 4.77899 10.8333 5C10.8333 5.22101 10.7455 5.43297 10.5893 5.58926C10.433 5.74554 10.221 5.83333 10 5.83333H5.83333C5.61232 5.83333 5.40036 5.74554 5.24408 5.58926C5.0878 5.43297 5 5.22101 5 5C5 4.77899 5.0878 4.56702 5.24408 4.41074C5.40036 4.25446 5.61232 4.16667 5.83333 4.16667ZM14.1667 12.5H5.83333C5.61232 12.5 5.40036 12.4122 5.24408 12.2559C5.0878 12.0996 5 11.8877 5 11.6667C5 11.4457 5.0878 11.2337 5.24408 11.0774C5.40036 10.9211 5.61232 10.8333 5.83333 10.8333H14.1667C14.3877 10.8333 14.5996 10.9211 14.7559 11.0774C14.9122 11.2337 15 11.4457 15 11.6667C15 11.8877 14.9122 12.0996 14.7559 12.2559C14.5996 12.4122 14.3877 12.5 14.1667 12.5ZM14.1667 9.16667H5.83333C5.61232 9.16667 5.40036 9.07887 5.24408 8.92259C5.0878 8.76631 5 8.55435 5 8.33333C5 8.11232 5.0878 7.90036 5.24408 7.74408C5.40036 7.5878 5.61232 7.5 5.83333 7.5H14.1667C14.3877 7.5 14.5996 7.5878 14.7559 7.74408C14.9122 7.90036 15 8.11232 15 8.33333C15 8.55435 14.9122 8.76631 14.7559 8.92259C14.5996 9.07887 14.3877 9.16667 14.1667 9.16667Z" fill="#454545"/>
</g>
<defs>
<clipPath id="clip0_1759_1347">
<rect width="20" height="20" fill="white"/>
</clipPath>
</defs>
</svg>
