<svg width="16" height="16" viewBox="0 0 16 16" fill="none" xmlns="http://www.w3.org/2000/svg">
<g clip-path="url(#clip0_1264_3118)">
<path d="M8 15C11.866 15 15 11.866 15 8C15 4.13401 11.866 1 8 1C4.13401 1 1 4.13401 1 8C1 11.866 4.13401 15 8 15Z" fill="white"/>
<path d="M8 15.5C12.1421 15.5 15.5 12.1421 15.5 8C15.5 3.85786 12.1421 0.5 8 0.5C3.85786 0.5 0.5 3.85786 0.5 8C0.5 12.1421 3.85786 15.5 8 15.5Z" stroke="#FF0000" stroke-miterlimit="10"/>
<path d="M7 11C7 10.8022 7.05865 10.6089 7.16853 10.4444C7.27841 10.28 7.43459 10.1518 7.61732 10.0761C7.80004 10.0004 8.00111 9.98063 8.19509 10.0192C8.38907 10.0578 8.56725 10.153 8.70711 10.2929C8.84696 10.4327 8.9422 10.6109 8.98079 10.8049C9.01937 10.9989 8.99957 11.2 8.92388 11.3827C8.84819 11.5654 8.72002 11.7216 8.55557 11.8315C8.39112 11.9414 8.19778 12 8 12C7.73478 12 7.48043 11.8946 7.29289 11.7071C7.10536 11.5196 7 11.2652 7 11ZM7.6 9C7.41831 9.00015 7.24002 8.95079 7.08428 8.85724C6.92853 8.76368 6.80121 8.62946 6.716 8.469L6.233 7.555C6.07982 7.26608 5.99981 6.94401 6 6.617V5C6 4.73478 6.10536 4.48043 6.29289 4.29289C6.48043 4.10536 6.73478 4 7 4H9C9.26522 4 9.51957 4.10536 9.70711 4.29289C9.89464 4.48043 10 4.73478 10 5V6.657C9.99997 6.99215 9.91573 7.32191 9.755 7.616L9.284 8.479C9.19803 8.63655 9.07124 8.76806 8.91693 8.85973C8.76262 8.9514 8.58648 8.99985 8.407 9H7.6Z" fill="#FF0000"/>
</g>
<defs>
<clipPath id="clip0_1264_3118">
<rect width="16" height="16" fill="white"/>
</clipPath>
</defs>
</svg>
